<svg width="70" height="70" viewBox="0 0 70 70" fill="none" xmlns="http://www.w3.org/2000/svg">
<rect width="70" height="70" rx="10" fill="#E7F2EF"/>
<rect x="10" y="22.5154" width="28" height="30" rx="5" transform="rotate(-26.5502 10 22.5154)" fill="url(#paint0_linear_32_36)"/>
<rect x="27" y="20" width="28" height="30" rx="5" fill="url(#paint1_linear_32_36)"/>
<path d="M53.375 39.8125H43.9039C43.875 40.4703 43.3293 40.875 42.625 40.875H40.25C39.5199 40.875 38.9602 40.2949 38.9699 39.8125H29.625C29.2812 39.8125 29 40.0516 29 40.3438V40.875C29 42.0438 30.125 43 31.5 43H51.5C52.875 43 54 42.0438 54 40.875V40.3438C54 40.0516 53.7188 39.8125 53.375 39.8125ZM51.5 27.5938C51.5 26.7172 50.6562 26 49.625 26H33.375C32.3438 26 31.5 26.7172 31.5 27.5938V38.75H51.5V27.5938ZM49 36.625H34V28.125H49V36.625Z" fill="white"/>
<defs>
<linearGradient id="paint0_linear_32_36" x1="30.3226" y1="28.5154" x2="10.2321" y2="48.4763" gradientUnits="userSpaceOnUse">
<stop stop-color="#7FDB6A"/>
<stop offset="1" stop-color="#26AC5B"/>
</linearGradient>
<linearGradient id="paint1_linear_32_36" x1="47.3226" y1="26" x2="27.2321" y2="45.9609" gradientUnits="userSpaceOnUse">
<stop stop-color="#7FDB6A"/>
<stop offset="1" stop-color="#26AC5B"/>
</linearGradient>
</defs>
</svg>
