<svg width="49" height="49" viewBox="0 0 49 49" fill="none" xmlns="http://www.w3.org/2000/svg">
<g clip-path="url(#clip0_34_9)">
<path d="M24.8804 18.8853C23.2891 18.8853 21.7629 19.5174 20.6377 20.6426C19.5125 21.7678 18.8804 23.294 18.8804 24.8853C18.8804 26.4766 19.5125 28.0027 20.6377 29.1279C21.7629 30.2531 23.2891 30.8853 24.8804 30.8853C26.4717 30.8853 27.9978 30.2531 29.123 29.1279C30.2482 28.0027 30.8804 26.4766 30.8804 24.8853C30.8804 23.294 30.2482 21.7678 29.123 20.6426C27.9978 19.5174 26.4717 18.8853 24.8804 18.8853ZM24.8804 14.8853C27.5325 14.8853 30.0761 15.9388 31.9514 17.8142C33.8268 19.6895 34.8804 22.2331 34.8804 24.8853C34.8804 27.5374 33.8268 30.081 31.9514 31.9563C30.0761 33.8317 27.5325 34.8853 24.8804 34.8853C22.2282 34.8853 19.6847 33.8317 17.8093 31.9563C15.9339 30.081 14.8804 27.5374 14.8804 24.8853C14.8804 22.2331 15.9339 19.6895 17.8093 17.8142C19.6847 15.9388 22.2282 14.8853 24.8804 14.8853ZM37.8804 14.3853C37.8804 15.0483 37.617 15.6842 37.1481 16.153C36.6793 16.6219 36.0434 16.8853 35.3804 16.8853C34.7173 16.8853 34.0814 16.6219 33.6126 16.153C33.1438 15.6842 32.8804 15.0483 32.8804 14.3853C32.8804 13.7222 33.1438 13.0863 33.6126 12.6175C34.0814 12.1486 34.7173 11.8853 35.3804 11.8853C36.0434 11.8853 36.6793 12.1486 37.1481 12.6175C37.617 13.0863 37.8804 13.7222 37.8804 14.3853ZM24.8804 8.88525C19.9324 8.88525 19.1244 8.89925 16.8224 9.00125C15.2544 9.07525 14.2024 9.28525 13.2264 9.66525C12.3584 10.0013 11.7324 10.4033 11.0664 11.0713C10.4404 11.6761 9.95908 12.4144 9.65837 13.2313C9.27837 14.2113 9.06837 15.2613 8.99637 16.8273C8.89237 19.0353 8.88037 19.8073 8.88037 24.8853C8.88037 29.8333 8.89437 30.6413 8.99637 32.9433C9.07037 34.5093 9.28037 35.5633 9.65837 36.5373C9.99837 37.4073 10.3984 38.0333 11.0624 38.6973C11.7364 39.3693 12.3624 39.7713 13.2224 40.1033C14.2104 40.4853 15.2624 40.6973 16.8224 40.7693C19.0304 40.8733 19.8024 40.8853 24.8804 40.8853C29.8284 40.8853 30.6364 40.8713 32.9384 40.7693C34.5024 40.6953 35.5564 40.4853 36.5324 40.1073C37.3984 39.7693 38.0284 39.3673 38.6924 38.7033C39.3664 38.0293 39.7684 37.4033 40.1004 36.5433C40.4804 35.5573 40.6924 34.5033 40.7644 32.9433C40.8684 30.7353 40.8804 29.9633 40.8804 24.8853C40.8804 19.9373 40.8664 19.1293 40.7644 16.8273C40.6904 15.2633 40.4804 14.2073 40.1004 13.2313C39.799 12.4153 39.3185 11.6772 38.6944 11.0713C38.0898 10.4449 37.3514 9.96359 36.5344 9.66325C35.5544 9.28325 34.5024 9.07325 32.9384 9.00125C30.7304 8.89725 29.9584 8.88525 24.8804 8.88525ZM24.8804 4.88525C30.3144 4.88525 30.9924 4.90525 33.1244 5.00525C35.2544 5.10525 36.7044 5.43925 37.9804 5.93525C39.3004 6.44325 40.4124 7.13125 41.5244 8.24125C42.5414 9.24105 43.3283 10.4504 43.8304 11.7853C44.3244 13.0593 44.6604 14.5113 44.7604 16.6413C44.8544 18.7733 44.8804 19.4513 44.8804 24.8853C44.8804 30.3193 44.8604 30.9973 44.7604 33.1293C44.6604 35.2593 44.3244 36.7093 43.8304 37.9853C43.3297 39.3208 42.5426 40.5305 41.5244 41.5293C40.5243 42.5459 39.315 43.3328 37.9804 43.8353C36.7064 44.3293 35.2544 44.6653 33.1244 44.7653C30.9924 44.8593 30.3144 44.8853 24.8804 44.8853C19.4464 44.8853 18.7684 44.8653 16.6364 44.7653C14.5064 44.6653 13.0564 44.3293 11.7804 43.8353C10.445 43.3342 9.23543 42.5471 8.23637 41.5293C7.21918 40.5296 6.43223 39.3202 5.93037 37.9853C5.43437 36.7113 5.10037 35.2593 5.00037 33.1293C4.90637 30.9973 4.88037 30.3193 4.88037 24.8853C4.88037 19.4513 4.90037 18.7733 5.00037 16.6413C5.10037 14.5093 5.43437 13.0613 5.93037 11.7853C6.43084 10.4496 7.21798 9.2399 8.23637 8.24125C9.23571 7.22372 10.4452 6.43671 11.7804 5.93525C13.0564 5.43925 14.5044 5.10525 16.6364 5.00525C18.7684 4.91125 19.4464 4.88525 24.8804 4.88525Z" fill="#333333"/>
</g>
<defs>
<clipPath id="clip0_34_9">
<rect width="48" height="48" fill="white" transform="translate(0.880371 0.885254)"/>
</clipPath>
</defs>
</svg>
