<svg width="49" height="49" viewBox="0 0 49 49" fill="none" xmlns="http://www.w3.org/2000/svg">
<g clip-path="url(#clip0_36_17)">
<path d="M36.9469 37.0261H31.6169V28.6721C31.6169 26.6801 31.5769 24.1161 28.8369 24.1161C26.0589 24.1161 25.6349 26.2841 25.6349 28.5261V37.0261H20.3029V19.8481H25.4229V22.1881H25.4929C26.2089 20.8401 27.9489 19.4141 30.5489 19.4141C35.9489 19.4141 36.9489 22.9701 36.9489 27.5961V37.0261H36.9469ZM14.2829 17.4981C13.876 17.4987 13.473 17.4189 13.097 17.2634C12.721 17.1078 12.3794 16.8796 12.0918 16.5918C11.8041 16.304 11.5762 15.9623 11.4209 15.5862C11.2656 15.2101 11.1861 14.807 11.1869 14.4001C11.1873 13.7878 11.3692 13.1894 11.7097 12.6804C12.0503 12.1715 12.534 11.775 13.0999 11.541C13.6658 11.3071 14.2883 11.2462 14.8888 11.366C15.4893 11.4859 16.0408 11.7811 16.4735 12.2144C16.9062 12.6476 17.2007 13.1995 17.3198 13.8001C17.4388 14.4007 17.3771 15.0232 17.1424 15.5888C16.9077 16.1543 16.5106 16.6376 16.0012 16.9775C15.4919 17.3173 14.8952 17.4985 14.2829 17.4981ZM16.9549 37.0261H11.6089V19.8481H16.9569V37.0261H16.9549ZM39.6169 6.34814H8.93486C7.46286 6.34814 6.27686 7.50814 6.27686 8.94214V39.7541C6.27686 41.1881 7.46486 42.3481 8.93286 42.3481H39.6089C41.0769 42.3481 42.2769 41.1881 42.2769 39.7541V8.94214C42.2769 7.50814 41.0769 6.34814 39.6089 6.34814H39.6169Z" fill="#111827"/>
</g>
<defs>
<clipPath id="clip0_36_17">
<rect width="48" height="48" fill="white" transform="translate(0.276855 0.348145)"/>
</clipPath>
</defs>
</svg>
