<svg width="49" height="49" viewBox="0 0 49 49" fill="none" xmlns="http://www.w3.org/2000/svg">
<g clip-path="url(#clip0_22_2)">
<path d="M36.6113 0.364502V36.3645C36.7913 36.4245 37.0313 36.3645 37.1513 36.3645H42.0113C42.3113 36.3645 42.5513 36.1245 42.5513 35.8245V0.964502C42.5513 0.604502 42.3113 0.424502 42.0113 0.424502H36.5513L36.6113 0.364502ZM30.6113 3.3645L13.1513 12.1845C12.8513 12.3045 12.3713 12.3645 12.0113 12.3645H1.15133C0.791328 12.3645 0.611328 12.6045 0.611328 12.9045V23.7645C0.611328 24.1245 0.851328 24.3045 1.15133 24.3045H6.61133L12.7913 40.6245C13.4513 42.1245 15.4313 42.7845 16.9313 42.1245C18.4313 41.4645 19.0913 39.4845 18.4313 37.9845L13.9313 27.3045C14.1113 26.4645 14.7113 25.9845 15.6113 25.9845V25.8045L30.6113 33.3045V3.3045V3.3645Z" fill="#fff"/>
</g>
<defs>
<clipPath id="clip0_22_2">
<rect width="48" height="48" fill="#fff" transform="translate(0.611328 0.364502)"/>
</clipPath>
</defs>
</svg>
