<svg width="49" height="49" viewBox="0 0 49 49" fill="none" xmlns="http://www.w3.org/2000/svg">
<g clip-path="url(#clip0_11_2)">
<path d="M36.4022 33.6893L44.9682 42.2533L42.1382 45.0833L33.5742 36.5173C30.3877 39.0718 26.4242 40.4611 22.3402 40.4553C12.4042 40.4553 4.34021 32.3913 4.34021 22.4553C4.34021 12.5193 12.4042 4.45532 22.3402 4.45532C32.2762 4.45532 40.3402 12.5193 40.3402 22.4553C40.346 26.5393 38.9567 30.5028 36.4022 33.6893ZM32.3902 32.2053C34.9284 29.5951 36.3459 26.0962 36.3402 22.4553C36.3402 14.7193 30.0742 8.45532 22.3402 8.45532C14.6042 8.45532 8.34021 14.7193 8.34021 22.4553C8.34021 30.1893 14.6042 36.4553 22.3402 36.4553C25.9811 36.4611 29.48 35.0435 32.0902 32.5053L32.3902 32.2053Z" fill="#333333"/>
</g>
<defs>
<clipPath id="clip0_11_2">
<rect width="48" height="48" fill="white" transform="translate(0.34021 0.455322)"/>
</clipPath>
</defs>
</svg>
