<svg width="49" height="49" viewBox="0 0 49 49" fill="none" xmlns="http://www.w3.org/2000/svg">
<g clip-path="url(#clip0_34_13)">
<path d="M43.4957 13.2111C44.4097 16.7751 44.4097 24.2151 44.4097 24.2151C44.4097 24.2151 44.4097 31.6551 43.4957 35.2191C42.9877 37.1891 41.5017 38.7391 39.6197 39.2631C36.2017 40.2151 24.4097 40.2151 24.4097 40.2151C24.4097 40.2151 12.6237 40.2151 9.19967 39.2631C7.30967 38.7311 5.82567 37.1831 5.32367 35.2191C4.40967 31.6551 4.40967 24.2151 4.40967 24.2151C4.40967 24.2151 4.40967 16.7751 5.32367 13.2111C5.83167 11.2411 7.31767 9.69109 9.19967 9.16709C12.6237 8.21509 24.4097 8.21509 24.4097 8.21509C24.4097 8.21509 36.2017 8.21509 39.6197 9.16709C41.5097 9.69909 42.9937 11.2471 43.4957 13.2111ZM20.4097 31.2151L32.4097 24.2151L20.4097 17.2151V31.2151Z" fill="#111827"/>
</g>
<defs>
<clipPath id="clip0_34_13">
<rect width="48" height="48" fill="white" transform="translate(0.409668 0.215088)"/>
</clipPath>
</defs>
</svg>
