<?xml version="1.0" encoding="utf-8"?>
<!-- Generator: Adobe Illustrator 27.5.0, SVG Export Plug-In . SVG Version: 6.00 Build 0)  -->
<svg version="1.1" xmlns="http://www.w3.org/2000/svg" xmlns:xlink="http://www.w3.org/1999/xlink" x="0px" y="0px"
	 viewBox="0 0 500 500" style="enable-background:new 0 0 500 500;" xml:space="preserve">
<g id="Background_Complete">
	<g>
		<rect y="382.398" style="fill:#EBEBEB;" width="500" height="0.25"/>
		<rect x="290.208" y="389.208" style="fill:#EBEBEB;" width="25.459" height="0.25"/>
		<rect x="395.111" y="394.619" style="fill:#EBEBEB;" width="60.333" height="0.25"/>
		<rect x="222.459" y="389.333" style="fill:#EBEBEB;" width="62.333" height="0.25"/>
		<rect x="169" y="396.814" style="fill:#EBEBEB;" width="13.041" height="0.25"/>
		<rect x="194.708" y="396.814" style="fill:#EBEBEB;" width="59.376" height="0.25"/>
		<rect x="52.459" y="392.592" style="fill:#EBEBEB;" width="38.454" height="0.25"/>
		<path style="fill:#EBEBEB;" d="M237.014,337.8H43.915c-3.147,0-5.708-2.561-5.708-5.708V60.66c0-3.147,2.561-5.708,5.708-5.708
			h193.099c3.146,0,5.707,2.561,5.707,5.708v271.432C242.721,335.239,240.16,337.8,237.014,337.8z M43.915,55.203
			c-3.01,0-5.458,2.448-5.458,5.458v271.432c0,3.01,2.448,5.458,5.458,5.458h193.099c3.009,0,5.457-2.448,5.457-5.458V60.66
			c0-3.009-2.448-5.458-5.457-5.458H43.915z"/>
		<path style="fill:#EBEBEB;" d="M453.31,337.8H260.212c-3.147,0-5.707-2.561-5.707-5.708V60.66c0-3.147,2.561-5.708,5.707-5.708
			H453.31c3.148,0,5.708,2.561,5.708,5.708v271.432C459.019,335.239,456.458,337.8,453.31,337.8z M260.212,55.203
			c-3.009,0-5.457,2.448-5.457,5.458v271.432c0,3.01,2.448,5.458,5.457,5.458H453.31c3.01,0,5.458-2.448,5.458-5.458V60.66
			c0-3.009-2.448-5.458-5.458-5.458H260.212z"/>
	</g>
	<g>
		<g>
			<g>
				<path style="fill:#F0F0F0;" d="M120.623,256.57c0,0-0.448,13.032-17.622,13.032c-17.174,0-17.622-13.032-17.622-13.032H120.623z
					"/>
			</g>
			<g>
				<path style="fill:#F0F0F0;" d="M162.271,256.57c0,0-0.448,13.032-17.622,13.032c-17.174,0-17.622-13.032-17.622-13.032H162.271z
					"/>
			</g>
			<g>
				<g>
					<rect x="71.34" y="278.155" style="fill:#F0F0F0;" width="39.432" height="95.388"/>
					<rect x="78.911" y="373.543" style="fill:#F0F0F0;" width="127.505" height="8.856"/>
					
						<rect x="110.772" y="278.155" transform="matrix(-1 -1.224647e-16 1.224647e-16 -1 324.7596 651.6972)" style="fill:#F5F5F5;" width="103.216" height="95.388"/>
					
						<rect x="126.275" y="289.759" transform="matrix(-1 -1.224647e-16 1.224647e-16 -1 324.7596 608.8693)" style="fill:#F0F0F0;" width="72.21" height="29.352"/>
					
						<rect x="126.275" y="327.471" transform="matrix(-1 -1.224647e-16 1.224647e-16 -1 324.7596 684.2931)" style="fill:#F0F0F0;" width="72.21" height="29.352"/>
				</g>
				<rect x="110.772" y="269.602" style="fill:#F0F0F0;" width="108.47" height="8.553"/>
				
					<rect x="65.829" y="269.602" transform="matrix(-1 -1.224647e-16 1.224647e-16 -1 176.6014 547.7563)" style="fill:#E6E6E6;" width="44.942" height="8.553"/>
			</g>
		</g>
		<g>
			<g>
				<rect x="191.148" y="75.962" style="fill:#FAFAFA;" width="200.954" height="144.26"/>
				<polygon style="fill:#FFFFFF;" points="202.584,220.223 253.697,75.962 292.055,75.962 240.942,220.223 				"/>
				<polygon style="fill:#FFFFFF;" points="305.728,220.223 356.841,75.962 370.832,75.962 319.719,220.223 				"/>
				<g>
					<path style="fill:#E0E0E0;" d="M401.684,71.002H181.567c-0.491,0-0.893,0.402-0.893,0.893l0,0c0,0.491,0.402,0.893,0.893,0.893
						h220.117c0.491,0,0.893-0.402,0.893-0.893l0,0C402.577,71.404,402.175,71.002,401.684,71.002z"/>
					
						<rect x="290.435" y="75.652" transform="matrix(-1 -1.224647e-16 1.224647e-16 -1 583.2503 296.1848)" style="fill:#F0F0F0;" width="2.381" height="144.88"/>
					
						<rect x="292.816" y="75.652" transform="matrix(-1 -1.224647e-16 1.224647e-16 -1 586.822 296.1848)" style="fill:#E0E0E0;" width="1.191" height="144.88"/>
					
						<rect x="290.435" y="46.227" transform="matrix(6.123234e-17 -1 1 6.123234e-17 143.5327 439.7176)" style="fill:#F0F0F0;" width="2.381" height="203.731"/>
					<path style="fill:#F0F0F0;" d="M393.491,219.23L393.491,219.23V76.955v-2.382h-2.381H192.141h-2.381v2.382V219.23h0v2.382h0
						l0,0h2.381l0,0H391.11l0,0h2.381l0,0l0,0V219.23z M192.141,219.23V76.955H391.11V219.23H192.141z"/>
					
						<rect x="393.491" y="74.573" transform="matrix(-1 -1.224647e-16 1.224647e-16 -1 788.172 296.1848)" style="fill:#E0E0E0;" width="1.191" height="147.038"/>
				</g>
			</g>
			<g>
				<polygon style="opacity:0.5;fill:#EBEBEB;" points="363.949,68.819 363.949,238.233 406.959,238.233 399.071,68.819 				"/>
				<polygon style="opacity:0.5;fill:#EBEBEB;" points="220.491,68.819 220.491,238.233 177.481,238.233 185.369,68.819 				"/>
			</g>
		</g>
		<g>
			<g>
				<rect x="247.886" y="260.667" style="fill:#EBEBEB;" width="211.16" height="34.815"/>
				<rect x="378.824" y="262.741" style="fill:#F5F5F5;" width="77.682" height="30.667"/>
				<rect x="298.379" y="262.741" style="fill:#F5F5F5;" width="77.682" height="30.667"/>
				<polygon style="fill:#F5F5F5;" points="290.744,382.398 286.077,382.398 296.046,295.481 300.713,295.481 				"/>
				<polygon style="fill:#F5F5F5;" points="249.67,382.398 245.004,382.398 254.973,295.481 259.639,295.481 				"/>
				<polygon style="fill:#F5F5F5;" points="416.188,382.398 420.855,382.398 410.886,295.481 406.219,295.481 				"/>
				<polygon style="fill:#F5F5F5;" points="457.262,382.398 461.928,382.398 451.959,295.481 447.293,295.481 				"/>
			</g>
			<g>
				<polygon style="fill:#E0E0E0;" points="349.768,222.333 333.439,222.333 326.642,260.667 342.972,260.667 				"/>
				<polygon style="fill:#E6E6E6;" points="386.091,189 294.758,189 297.536,244.556 388.869,244.556 				"/>
				<polygon style="fill:#FAFAFA;" points="383.991,190.318 296.99,190.318 299.636,243.238 386.637,243.238 				"/>
			</g>
		</g>
		<g>
			<path style="fill:#E0E0E0;" d="M409.139,254.548h1.775c0.398,0,0.72,0.322,0.72,0.72v0.042c0,0.398-0.322,0.72-0.72,0.72h-1.775
				c-0.398,0-0.72-0.322-0.72-0.72v-0.042C408.419,254.87,408.741,254.548,409.139,254.548z"/>
			<path style="fill:#E6E6E6;" d="M443.889,191.742l-19.799,19.799c-5.467-5.467-5.467-14.332,0-19.799
				C429.558,186.275,438.422,186.275,443.889,191.742z"/>
			<path style="fill:#E6E6E6;" d="M416.393,194.042l7.718,7.718l9.997-9.997l-7.718-7.718c-2.761-2.76-7.236-2.76-9.997,0l0,0
				C413.633,186.805,413.633,191.281,416.393,194.042z"/>
			
				<rect x="398.493" y="176.476" transform="matrix(-0.7071 -0.7071 0.7071 -0.7071 540.4335 623.4041)" style="fill:#E6E6E6;" width="1.67" height="46.598"/>
			
				<rect x="393.754" y="213.137" transform="matrix(-0.8601 0.5101 -0.5101 -0.8601 854.5874 238.5385)" style="fill:#E6E6E6;" width="1.67" height="46.598"/>
			<circle style="fill:#E6E6E6;" cx="416.393" cy="184.045" r="2.881"/>
			<circle style="fill:#E6E6E6;" cx="382.823" cy="216.279" r="1.837"/>
			<polygon style="fill:#E6E6E6;" points="399.254,255.278 412.823,255.278 413.889,260.667 398.189,260.667 			"/>
		</g>
	</g>
</g>
<g id="Background_Simple" style="display:none;">
	<g style="display:inline;">
		<path style="fill:#407BFF;" d="M422.049,184.814c-8.458,57.788-59.246,113.45-114.454,148.216
			c-142.746,90.61-274.433-81.14-238.777-138.835c27.141-58.958,106.878-38.566,141.537-60.589
			C405.186,8.892,429.866,136.487,422.049,184.814z"/>
		<path style="opacity:0.9;fill:#FFFFFF;" d="M422.049,184.814c-8.458,57.788-59.246,113.45-114.454,148.216
			c-142.746,90.61-274.433-81.14-238.777-138.835c27.141-58.958,106.878-38.566,141.537-60.589
			C405.186,8.892,429.866,136.487,422.049,184.814z"/>
	</g>
</g>
<g id="Shadow_1_">
	<ellipse id="_x3C_Path_x3E__311_" style="fill:#F5F5F5;" cx="250" cy="416.238" rx="193.889" ry="11.323"/>
</g>
<g id="Board">
	<g>
		<g>
			<path style="fill:#407BFF;" d="M343.311,251.794H104.758c-6.6,0-12.125-5.4-12.278-12l-3.134-135.127
				c-0.153-6.6,5.122-12,11.722-12h238.553c6.6,0,12.125,5.4,12.278,12l3.134,135.127
				C355.186,246.394,349.911,251.794,343.311,251.794z"/>
			<path style="fill:#407BFF;" d="M343.311,252.294H104.758c-6.886,0-12.618-5.602-12.778-12.488l-3.134-135.127
				c-0.077-3.328,1.155-6.467,3.472-8.837c2.315-2.37,5.423-3.675,8.75-3.675h238.554c6.886,0,12.618,5.603,12.778,12.488
				l3.134,135.127c0.077,3.329-1.156,6.468-3.473,8.838C349.745,250.989,346.638,252.294,343.311,252.294z M101.067,93.167
				c-3.056,0-5.909,1.198-8.035,3.373c-2.126,2.177-3.258,5.059-3.187,8.115l3.134,135.127c0.147,6.348,5.431,11.512,11.778,11.512
				h238.554c3.055,0,5.908-1.198,8.033-3.373c2.127-2.176,3.259-5.059,3.189-8.115l-3.134-135.127
				c-0.147-6.348-5.431-11.512-11.778-11.512H101.067z"/>
		</g>
		<g>
			<path style="fill:#F5F5F5;" d="M345.311,251.794H106.758c-6.6,0-12.125-5.4-12.278-12l-3.134-135.127
				c-0.153-6.6,5.122-12,11.722-12h238.553c6.6,0,12.125,5.4,12.278,12l3.134,135.127
				C357.186,246.394,351.911,251.794,345.311,251.794z"/>
			<path style="fill:#407BFF;" d="M345.311,252.294H106.758c-6.886,0-12.618-5.602-12.778-12.488l-3.134-135.127
				c-0.077-3.328,1.155-6.467,3.472-8.837c2.315-2.37,5.423-3.675,8.75-3.675h238.554c6.886,0,12.618,5.603,12.778,12.488
				l3.134,135.127c0.077,3.329-1.156,6.468-3.473,8.838C351.745,250.989,348.638,252.294,345.311,252.294z M103.067,93.167
				c-3.056,0-5.909,1.198-8.035,3.373c-2.126,2.177-3.258,5.059-3.187,8.115l3.134,135.127c0.147,6.348,5.431,11.512,11.778,11.512
				h238.554c3.055,0,5.908-1.198,8.033-3.373c2.127-2.176,3.259-5.059,3.189-8.115l-3.134-135.127
				c-0.147-6.348-5.431-11.512-11.778-11.512H103.067z"/>
		</g>
		<g>
			<path style="fill:#E0E0E0;" d="M138.233,130.478l-16.13-15.019c7.63-8.239,21.189-8.239,30.038,0
				c2.831,2.636,4.97,5.921,6.202,9.522L138.233,130.478z"/>
			<path style="opacity:0.2;fill:#407BFF;" d="M134.871,130.808l-21.022,1.851c-0.499-3.09-0.32-6.201,0.525-9.116
				c0.845-2.914,2.336-5.561,4.366-7.755L134.871,130.808z"/>
			<path style="fill:#FFFFFF;" d="M138.233,131.995l-11.642,12.572c-1.575-1.467-2.9-3.178-3.916-5.058
				c-1.016-1.88-1.706-3.898-2.039-5.964L138.233,131.995z"/>
			<path style="opacity:0.6;fill:#407BFF;" d="M139.362,133.708l20.11-5.497c2.503,7.321,0.983,15.157-3.979,20.516
				c-7.63,8.239-21.189,8.239-30.038,0L139.362,133.708z"/>
		</g>
		<g>
			<path style="opacity:0.2;fill:#407BFF;" d="M193.476,130.478l-16.13-15.019c7.63-8.239,21.189-8.239,30.038,0
				c2.831,2.636,4.971,5.921,6.202,9.522L193.476,130.478z"/>
			<path style="fill:#E0E0E0;" d="M190.114,130.808l-21.022,1.851c-0.499-3.09-0.319-6.201,0.526-9.116
				c0.845-2.914,2.336-5.561,4.366-7.755L190.114,130.808z"/>
			<path style="opacity:0.6;fill:#407BFF;" d="M193.476,131.995l-11.642,12.572c-1.575-1.467-2.9-3.178-3.916-5.058
				c-1.016-1.88-1.706-3.898-2.039-5.964L193.476,131.995z"/>
			<path style="fill:#FFFFFF;" d="M194.605,133.708l20.109-5.497c2.503,7.321,0.983,15.157-3.979,20.516
				c-7.63,8.239-21.189,8.239-30.038,0L194.605,133.708z"/>
		</g>
		<g style="opacity:0.3;">
			<path style="fill:#407BFF;" d="M106.931,232.367c-0.017,0-0.033-0.001-0.049-0.002c-0.275-0.027-0.477-0.271-0.45-0.546
				c1.14-11.782,8.44-23.067,19.529-30.189c9.608-6.171,21.815-9.29,35.388-9.007c3.485,0.071,7.016,0.361,10.43,0.643
				c5.141,0.423,10.451,0.86,15.667,0.549c5.853-0.35,16.593-2.146,22.756-10.243c2.184-2.869,3.607-6.333,4.985-9.684
				c1.659-4.036,3.375-8.211,6.441-11.432c4.078-4.284,10.353-6.727,18.649-7.258c4.291-0.273,8.645-0.071,12.855,0.124
				c3.691,0.172,7.51,0.35,11.254,0.202c6.622-0.261,15.77-1.855,21.743-7.972c2.741-2.808,4.641-6.382,6.477-9.838
				c0.961-1.809,1.955-3.679,3.064-5.436c3.787-5.998,9.09-10.947,15.336-14.313c0.242-0.129,0.546-0.04,0.678,0.203
				c0.131,0.243,0.04,0.547-0.203,0.678c-6.095,3.283-11.27,8.112-14.965,13.965c-1.09,1.727-2.075,3.58-3.027,5.373
				c-1.869,3.518-3.802,7.156-6.645,10.067c-4.909,5.027-12.662,7.888-22.419,8.272c-3.785,0.15-7.626-0.029-11.34-0.203
				c-4.186-0.194-8.514-0.396-12.744-0.125c-8.038,0.515-14.091,2.852-17.989,6.949c-2.937,3.085-4.616,7.171-6.24,11.122
				c-1.402,3.41-2.852,6.936-5.115,9.909c-6.404,8.415-17.467,10.276-23.491,10.636c-5.284,0.317-10.634-0.125-15.808-0.55
				c-3.399-0.28-6.915-0.569-10.369-0.64c-13.33-0.281-25.386,2.784-34.826,8.849c-10.834,6.957-17.964,17.964-19.074,29.443
				C107.402,232.174,107.185,232.367,106.931,232.367z"/>
			<path style="fill:#407BFF;" d="M313.09,122.943c-0.041,0-0.083-0.005-0.125-0.016c-0.268-0.069-0.428-0.342-0.359-0.609
				l1.097-4.245c0.097-0.373,0.25-0.926,0.464-1.428c0.024-0.054,0.002-0.094-0.008-0.108c-3.186,0.082-6.324,0.484-9.385,1.165
				c-0.271,0.063-0.537-0.111-0.597-0.38c-0.06-0.27,0.11-0.536,0.38-0.597c3.12-0.693,6.318-1.104,9.507-1.219
				c0.338-0.014,0.711,0.16,0.919,0.465c0.216,0.314,0.255,0.714,0.104,1.067c-0.209,0.489-0.364,1.088-0.415,1.284l-1.097,4.245
				C313.516,122.794,313.313,122.943,313.09,122.943z"/>
		</g>
	</g>
</g>
<g id="Character_2">
	<g>
		<path style="fill:#263238;" d="M354.442,111.889c0,0-13.994-6.139-18.108,11.17C333.021,136.992,326,142.222,326,142.222
			s24.75,9.556,38.554-1.648L354.442,111.889z"/>
		<path style="fill:#FFC3BD;" d="M338.167,170.168c-0.512,1.38-0.99,2.564-1.542,3.801c-0.536,1.224-1.096,2.431-1.67,3.631
			c-1.15,2.399-2.442,4.725-3.768,7.034c-2.684,4.6-5.714,9.037-9.271,13.124l-0.665,0.767c-0.242,0.27-0.358,0.439-0.864,0.949
			c-0.849,0.861-2.065,1.609-3.334,1.967c-1.278,0.38-2.508,0.352-3.55,0.199c-1.049-0.161-1.943-0.46-2.744-0.797
			c-1.594-0.688-2.87-1.52-4.041-2.405c-1.168-0.884-2.215-1.815-3.214-2.767c-3.939-3.858-7.081-8.02-9.943-12.522l3.549-2.682
			c3.44,3.564,7.108,7.124,10.877,10.022c1.853,1.426,3.892,2.717,5.52,3.241c0.801,0.271,1.352,0.155,1.214,0.109
			c-0.047-0.02-0.136,0.038-0.102-0.03c-0.055,0.054,0.217-0.288,0.383-0.511l0.549-0.722c2.935-3.843,5.512-8.024,7.9-12.32
			c1.183-2.157,2.274-4.367,3.349-6.583c0.533-1.109,1.053-2.225,1.547-3.346c0.485-1.105,0.995-2.284,1.405-3.294L338.167,170.168z
			"/>
		<path style="fill:#263238;" d="M335.316,158.138c-3.733-0.131-10.342,13.459-10.342,13.459l9.723,11.796
			c0,0,11.346-14.23,9.79-18.832C342.865,159.769,340.764,158.328,335.316,158.138z"/>
		<polygon style="opacity:0.2;" points="334.696,161.423 329.645,177.269 334.199,182.779 		"/>
		<path style="fill:#FFC3BD;" d="M296.353,184.779l-10.404-2.623l7.015-5.529c0,0,5.195,2.197,5.529,5.833L296.353,184.779z"/>
		<polygon style="fill:#FFC3BD;" points="281.151,177.721 286.518,173.723 292.964,176.627 285.948,182.156 		"/>
		<polygon style="fill:#FFC3BD;" points="361.733,402.228 352.949,402.228 353.379,381.887 362.162,381.887 		"/>
		<path style="fill:#263238;" d="M352.097,401.211l9.868,0c0.359,0,0.651,0.249,0.701,0.6l1.124,7.808
			c0.117,0.81-0.58,1.576-1.408,1.562c-3.44-0.059-5.098-0.261-9.438-0.261c-2.67,0-10.338,0.277-14.025,0.277
			c-3.606,0-3.883-3.646-2.348-3.976c6.883-1.48,11.738-3.522,14.057-5.47C351.047,401.4,351.572,401.211,352.097,401.211z"/>
		<g style="opacity:0.2;">
			<polygon points="353.38,381.893 353.157,392.378 361.945,392.378 362.168,381.893 			"/>
		</g>
		<path style="fill:#263238;" d="M331.795,162.494c-0.194,5.556,0.769,18.521,6.606,48.719l35.658-1.061
			c-1.03-14.495-1.313-23.443,4.737-53.433c0,0-7.52-1.403-15.201-1.545c-6.009-0.111-10.931-0.156-16.192,0.482
			c-4.126,0.501-8.572,1.358-11.497,1.97C333.58,158.114,331.878,160.118,331.795,162.494z"/>
		<path style="fill:#FFC3BD;" d="M361.448,136.991c-0.866,5.24-1.602,14.816,2.147,18.184c0,0-3.466,6.488-12.366,8.825
			c-8.216-4.167-3.826-8.343-3.826-8.343c5.768-1.56,5.49-5.866,4.358-9.884L361.448,136.991z"/>
		<g>
			<polygon style="fill:#E0E0E0;" points="351.229,164 352.292,161.917 358,163.208 			"/>
			<path style="fill:#FFFFFF;" d="M352.292,161.917c1.833-0.833,10.319-6.361,10.653-8.083c0.667,0.722,4.254,0.945,4.254,0.945
				s-2.144,9.875-6.31,17.097C358.055,165.43,355.347,163.917,352.292,161.917z"/>
			<polygon style="fill:#E0E0E0;" points="351.229,164 350.75,161.917 347.25,162.167 			"/>
			<path style="fill:#FFFFFF;" d="M350.75,161.917c-2.833-1.875-2.139-5.806-1.863-7.528c-0.667,0.722-4.254,0.944-4.254,0.944
				s-5.082,9.319-0.915,16.541C345.689,166.694,347.694,163.917,350.75,161.917z"/>
		</g>
		<path style="opacity:0.2;" d="M357.499,140.574l-5.734,5.194c0.271,0.951,0.489,1.917,0.585,2.859
			c2.21-0.387,5.186-2.914,5.353-5.244C357.786,142.221,357.704,141.108,357.499,140.574z"/>
		<path style="fill:#FFC3BD;" d="M364.3,125.001c-0.109,8.717,0.03,12.409-4.141,17.084c-6.275,7.032-16.957,4.991-19.455-3.583
			c-2.248-7.717-1.691-20.676,6.647-24.549C355.565,110.136,364.409,116.285,364.3,125.001z"/>
		<path style="fill:#FFFFFF;" d="M363.595,129.194c-0.004,0-0.008,0-0.013,0l-10.95-0.544c-0.138-0.007-0.244-0.124-0.237-0.263
			c0.007-0.138,0.105-0.248,0.263-0.237l10.95,0.544c0.138,0.007,0.244,0.124,0.237,0.263
			C363.838,129.091,363.728,129.194,363.595,129.194z"/>
		<path style="fill:#263238;" d="M338.401,211.213c0,0,4.509,65.244,7.025,91.918c2.617,27.745,6.039,87.217,6.039,87.217h11.877
			c0,0,2.473-60.48,1.536-87.847c-1.021-29.835-0.366-92.064-0.366-92.064L338.401,211.213z"/>
		<polygon style="fill:#407BFF;" points="364.372,390.773 350.436,390.773 349.414,386.328 365.02,385.784 		"/>
		<path style="opacity:0.2;" d="M364.352,233.74c-1.44-1.6-3.04-0.77-4.78,3.79c-5.93,15.56,0.39,40.39,5.04,54.69
			C364.262,274.42,364.272,250.96,364.352,233.74z"/>
		<path style="fill:#263238;" d="M349.986,128.76c0.034,0.708-0.313,1.3-0.775,1.322c-0.463,0.023-0.866-0.533-0.9-1.24
			c-0.035-0.708,0.312-1.3,0.775-1.322C349.548,127.497,349.951,128.053,349.986,128.76z"/>
		<path style="fill:#263238;" d="M341.987,128.949c0.035,0.708-0.312,1.299-0.775,1.322c-0.463,0.023-0.866-0.533-0.9-1.24
			c-0.034-0.708,0.313-1.3,0.775-1.322C341.55,127.686,341.953,128.241,341.987,128.949z"/>
		<path style="fill:#263238;" d="M341.293,127.738l-1.724-0.407C339.57,127.331,340.507,128.616,341.293,127.738z"/>
		<path style="fill:#ED847E;" d="M345.082,129.53c0,0-1.052,3.105-2.302,4.639c0.977,0.826,2.546,0.35,2.546,0.35L345.082,129.53z"
			/>
		<path style="fill:#263238;" d="M349.32,137.103c-0.323,0.066-0.669,0.111-1.039,0.129c-0.115,0.006-0.213-0.083-0.218-0.198
			c-0.006-0.115,0.092-0.213,0.197-0.218c3.115-0.153,4.451-2.392,4.464-2.414c0.058-0.099,0.185-0.133,0.285-0.075
			c0.099,0.058,0.133,0.185,0.075,0.285C353.031,134.701,351.908,136.574,349.32,137.103z"/>
		<path style="fill:#FFC3BD;" d="M367.043,132.855c-0.535,1.726-1.818,3.044-3.143,3.715c-1.993,1.009-3.423-0.669-3.233-2.777
			c0.172-1.898,1.416-4.709,3.591-4.842C366.402,128.819,367.655,130.882,367.043,132.855z"/>
		<path style="fill:#263238;" d="M353.133,126.321c-0.172,0.035-0.354-0.042-0.445-0.202c-0.951-1.674-3.416-1.933-3.441-1.936
			c-0.229-0.022-0.396-0.226-0.374-0.455c0.022-0.228,0.224-0.396,0.455-0.373c0.119,0.012,2.921,0.308,4.083,2.353
			c0.114,0.2,0.044,0.454-0.156,0.567C353.216,126.298,353.175,126.313,353.133,126.321z"/>
		<path style="fill:#263238;" d="M339.42,124.92c-0.139,0.029-0.289-0.015-0.392-0.127c-0.155-0.17-0.142-0.433,0.028-0.588
			c1.702-1.548,3.567-1.086,3.645-1.065c0.223,0.058,0.356,0.285,0.298,0.507c-0.057,0.221-0.284,0.355-0.506,0.298l0,0
			c-0.061-0.015-1.518-0.361-2.877,0.875C339.559,124.873,339.491,124.906,339.42,124.92z"/>
		<path style="fill:#FFC3BD;" d="M383.199,166.802c1.166,4.665,2.389,9.427,3.641,14.11c1.286,4.684,2.619,9.348,4.131,13.87
			c1.477,4.437,3.381,8.983,5.113,13.597c1.766,4.598,3.481,9.238,5.072,13.929l-4.026,1.892c-2.598-4.244-5.038-8.556-7.372-12.935
			c-1.17-2.189-2.31-4.392-3.419-6.632c-1.129-2.21-2.196-4.594-3.153-6.965c-1.902-4.739-3.491-9.509-4.913-14.313
			c-1.452-4.808-2.721-9.597-3.825-14.536L383.199,166.802z"/>
		<path style="fill:#263238;" d="M378.796,156.719c3.605,0.98,8.261,13.154,8.261,13.154l-13.565,10.322
			c0,0-5.36-10.118-3.996-14.781C370.917,160.559,374.683,155.601,378.796,156.719z"/>
		<path style="fill:#407BFF;" d="M348.799,402.746c-0.874,0-1.679-0.135-2.13-0.541c-0.287-0.258-0.413-0.598-0.376-1.013
			c0.022-0.248,0.145-0.439,0.353-0.553c1.075-0.59,4.578,1.198,4.973,1.404c0.079,0.041,0.123,0.127,0.11,0.214
			c-0.013,0.087-0.079,0.157-0.165,0.174C350.818,402.581,349.767,402.746,348.799,402.746z M347.234,400.929
			c-0.161,0-0.293,0.024-0.388,0.075c-0.086,0.047-0.128,0.116-0.138,0.225c-0.026,0.281,0.053,0.499,0.239,0.666
			c0.533,0.479,1.978,0.563,3.925,0.24C349.667,401.557,348.066,400.929,347.234,400.929z"/>
		<path style="fill:#407BFF;" d="M351.523,402.436c-0.029,0-0.058-0.006-0.085-0.018c-1.047-0.473-3.118-2.368-2.956-3.362
			c0.038-0.236,0.205-0.529,0.782-0.587c0.425-0.043,0.814,0.078,1.152,0.359c1.104,0.92,1.307,3.284,1.315,3.384
			c0.006,0.074-0.027,0.145-0.087,0.187C351.608,402.423,351.566,402.436,351.523,402.436z M349.431,398.876
			c-0.041,0-0.083,0.002-0.125,0.007c-0.38,0.038-0.404,0.19-0.413,0.24c-0.097,0.597,1.309,2.087,2.376,2.734
			c-0.103-0.689-0.395-2.107-1.12-2.71C349.931,398.965,349.695,398.876,349.431,398.876z"/>
		<polygon style="fill:#FFC3BD;" points="413.268,402.228 404.485,402.228 399.172,381.887 407.956,381.887 		"/>
		<path style="fill:#263238;" d="M413.348,401.211l-9.868,0c-0.359,0-0.595,0.249-0.569,0.6l0.597,7.808
			c0.062,0.81,0.927,1.576,1.753,1.562c3.427-0.059,5.041-0.261,9.38-0.261c2.67,0,5.329,0.277,9.016,0.277
			c3.606,0,3.08-3.646,1.472-3.976c-7.21-1.48-7.445-3.522-10.194-5.47C414.439,401.4,413.873,401.211,413.348,401.211z"/>
		<g style="opacity:0.2;">
			<polygon points="399.176,381.893 401.912,392.378 410.7,392.378 407.963,381.893 			"/>
		</g>
		<path style="fill:#263238;" d="M374.059,210.152c10.153,13.598,16.332,63.539,20.82,90.24
			c4.668,27.772,16.156,89.956,16.156,89.956h-11.877c0,0-16.148-63.295-24.612-90.098c-9.343-29.586-23.316-90.098-23.316-90.098
			S364.513,210.152,374.059,210.152z"/>
		<polygon style="fill:#407BFF;" points="411.879,390.773 397.943,390.773 396.921,386.328 412.527,385.784 		"/>
		<path style="fill:#407BFF;" d="M414.52,401.456c0.789-0.377,1.457-0.846,1.689-1.406c0.148-0.356,0.115-0.718-0.098-1.076
			c-0.127-0.214-0.32-0.334-0.557-0.347c-1.225-0.069-3.615,3.054-3.882,3.41c-0.053,0.071-0.056,0.167-0.007,0.241
			c0.049,0.073,0.139,0.108,0.225,0.086C412.628,402.177,413.647,401.873,414.52,401.456z M415.15,399.142
			c0.146-0.07,0.275-0.105,0.383-0.099c0.098,0.005,0.166,0.05,0.222,0.144c0.144,0.242,0.167,0.473,0.072,0.704
			c-0.274,0.662-1.542,1.36-3.439,1.908C413.225,400.757,414.399,399.5,415.15,399.142z"/>
		<path style="fill:#407BFF;" d="M411.929,402.351c0.026-0.013,0.05-0.031,0.069-0.053c0.741-0.878,1.794-3.48,1.218-4.308
			c-0.136-0.196-0.413-0.389-0.958-0.193c-0.402,0.145-0.701,0.421-0.885,0.821c-0.6,1.306,0.236,3.527,0.272,3.621
			c0.026,0.069,0.087,0.119,0.16,0.131C411.847,402.375,411.89,402.369,411.929,402.351z M412.283,398.236
			c0.037-0.018,0.076-0.034,0.116-0.048c0.359-0.129,0.447-0.002,0.476,0.039c0.345,0.497-0.281,2.448-0.965,3.491
			c-0.204-0.666-0.551-2.071-0.158-2.928C411.87,398.531,412.044,398.349,412.283,398.236z"/>
		<path style="fill:#263238;" d="M349.292,127.549l-1.724-0.407C347.568,127.142,348.505,128.427,349.292,127.549z"/>
		<path style="fill:#407BFF;" d="M374.531,208.044l1.007,3.165c0.132,0.244-0.154,0.505-0.566,0.517l-36.699,1.092
			c-0.322,0.01-0.592-0.14-0.619-0.342l-0.417-3.182c-0.029-0.221,0.244-0.416,0.596-0.426l36.109-1.074
			C374.207,207.785,374.446,207.887,374.531,208.044z"/>
		<g>
			<path style="fill:#263238;" d="M369.801,212.225l0.967-0.029c0.193-0.006,0.336-0.109,0.32-0.23l-0.577-4.133
				c-0.017-0.121-0.188-0.215-0.381-0.209l-0.967,0.029c-0.193,0.006-0.336,0.109-0.319,0.23l0.577,4.133
				C369.437,212.137,369.609,212.231,369.801,212.225z"/>
			<path style="fill:#263238;" d="M341,213.082l0.967-0.029c0.193-0.006,0.336-0.109,0.319-0.23l-0.577-4.133
				c-0.017-0.121-0.188-0.215-0.381-0.21l-0.967,0.029c-0.193,0.006-0.336,0.109-0.32,0.23l0.577,4.133
				C340.637,212.993,340.808,213.088,341,213.082z"/>
			<path style="fill:#263238;" d="M355.401,212.654l0.967-0.029c0.193-0.006,0.336-0.109,0.32-0.23l-0.577-4.133
				c-0.017-0.121-0.188-0.215-0.381-0.21l-0.967,0.029c-0.193,0.006-0.336,0.109-0.319,0.23l0.577,4.133
				C355.037,212.565,355.208,212.66,355.401,212.654z"/>
		</g>
		<path style="fill:#FFC3BD;" d="M400.145,220.726l6.989,6.419l-8.86,1.137c0,0-3.327-4.555-1.744-7.845L400.145,220.726z"/>
		<polygon style="fill:#FFC3BD;" points="408.34,234.43 400.871,234.981 398.275,228.282 407.134,227.145 		"/>
		<path style="fill:#263238;" d="M355.5,112.798c0,0-7.375-3.382-15.5,6.868c9.792,2.917,16.375,0.893,16.375,0.893L355.5,112.798z"
			/>
		<path style="fill:#263238;" d="M354.442,111.889c0,0,1.775,25.768,0,38.607c10.336-3.273,20.225-13.505,20.225-13.505
			S373.217,108.778,354.442,111.889z"/>
		<g>
			<path style="fill:#FFFFFF;" d="M349.193,134.729c-2.32,0-4.457-2.87-4.764-6.398c-0.189-2.179,0.351-4.192,1.444-5.385
				c0.634-0.691,1.411-1.057,2.248-1.057c2.32,0,4.457,2.87,4.764,6.398l0,0c0.189,2.179-0.351,4.192-1.444,5.385
				C350.808,134.363,350.03,134.729,349.193,134.729z M348.122,122.389c-0.693,0-1.343,0.309-1.879,0.895
				c-1.001,1.091-1.493,2.962-1.315,5.004c0.284,3.276,2.198,5.941,4.266,5.941c0.693,0,1.343-0.31,1.88-0.895
				c1-1.091,1.492-2.962,1.314-5.004l0,0C352.103,125.054,350.19,122.389,348.122,122.389z"/>
			<path style="fill:#FFFFFF;" d="M340.477,134.729c-1.881,0-3.598-2.811-3.909-6.398c-0.209-2.411,0.291-4.596,1.306-5.702
				c0.443-0.483,0.973-0.739,1.532-0.739c1.881,0,3.599,2.811,3.91,6.398l0,0c0.209,2.411-0.291,4.596-1.305,5.702
				C341.566,134.473,341.036,134.729,340.477,134.729z M339.405,122.389c-0.422,0-0.814,0.194-1.164,0.577
				c-0.909,0.991-1.37,3.08-1.176,5.321c0.279,3.221,1.842,5.941,3.411,5.941c0.422,0,0.813-0.194,1.165-0.577
				c0.909-0.991,1.37-3.08,1.176-5.321l0,0C342.538,125.109,340.976,122.389,339.405,122.389z"/>
			<path style="fill:#FFFFFF;" d="M344.679,128.559c-0.035,0-0.071-0.008-0.105-0.023c-0.798-0.369-1.347-0.031-1.371-0.017
				c-0.111,0.072-0.27,0.041-0.345-0.074c-0.074-0.115-0.043-0.269,0.071-0.345c0.032-0.02,0.797-0.511,1.855-0.018
				c0.125,0.059,0.18,0.207,0.121,0.332C344.863,128.505,344.772,128.559,344.679,128.559z"/>
		</g>
	</g>
</g>
<g id="Desk">
	<g>
		<g>
			<g>
				<g>
					<rect x="113.333" y="280.835" style="fill:#407BFF;" width="273.333" height="9.333"/>
					<rect x="113.333" y="280.835" style="opacity:0.8;fill:#FFFFFF;" width="273.333" height="9.333"/>
				</g>
				<rect x="306.667" y="280.835" style="opacity:0.3;fill:#407BFF;" width="80" height="9.333"/>
			</g>
			<polygon style="fill:#407BFF;" points="326.173,414.667 320.84,414.667 313.753,290.168 326.173,290.168 			"/>
			<polygon style="fill:#407BFF;" points="381.333,414.667 386.667,414.667 379.58,290.168 367.16,290.168 			"/>
			<polygon style="fill:#407BFF;" points="118.667,414.667 113.333,414.667 120.42,290.168 132.84,290.168 			"/>
			<polygon style="fill:#407BFF;" points="173.827,414.667 179.16,414.667 186.247,290.168 173.827,290.168 			"/>
		</g>
		<g>
			<g>
				<path style="fill:#407BFF;" d="M302.446,236.144h-58.314c-1.335,0-2.617,1.092-2.85,2.427l-6.378,36.527
					c-0.233,1.335,0.668,2.427,2.003,2.427h58.314c1.335,0,2.617-1.092,2.85-2.427l6.378-36.527
					C304.682,237.236,303.78,236.144,302.446,236.144z"/>
				<path style="opacity:0.2;fill:#FFFFFF;" d="M302.446,236.144h-58.314c-1.335,0-2.617,1.092-2.85,2.427l-6.378,36.527
					c-0.233,1.335,0.668,2.427,2.003,2.427h58.314c1.335,0,2.617-1.092,2.85-2.427l6.378-36.527
					C304.682,237.236,303.78,236.144,302.446,236.144z"/>
			</g>
			<g>
				<path style="fill:#407BFF;" d="M301.335,236.144h-58.313c-1.335,0-2.617,1.092-2.85,2.427l-6.378,36.527
					c-0.233,1.335,0.668,2.427,2.003,2.427h58.313c1.335,0,2.617-1.092,2.85-2.427l6.378-36.527
					C303.571,237.236,302.669,236.144,301.335,236.144z"/>
				<path style="opacity:0.4;fill:#FFFFFF;" d="M301.335,236.144h-58.313c-1.335,0-2.617,1.092-2.85,2.427l-6.378,36.527
					c-0.233,1.335,0.668,2.427,2.003,2.427h58.313c1.335,0,2.617-1.092,2.85-2.427l6.378-36.527
					C303.571,237.236,302.669,236.144,301.335,236.144z"/>
			</g>
			<path style="fill:#FFFFFF;" d="M235.796,276.523c-0.339,0-0.627-0.122-0.814-0.344c-0.194-0.23-0.267-0.555-0.204-0.911
				l6.378-36.526c0.149-0.852,1.02-1.599,1.864-1.599h58.314c0.338,0,0.627,0.122,0.813,0.344c0.194,0.231,0.267,0.555,0.204,0.911
				l-6.378,36.526c-0.148,0.852-1.02,1.599-1.864,1.599H235.796z"/>
			<g>
				<path style="fill:#407BFF;" d="M294.397,277.523h-73.333c-1.788,0-3.25,1.463-3.25,3.25h79.833
					C297.647,278.986,296.185,277.523,294.397,277.523z"/>
			</g>
			<path style="opacity:0.4;fill:#FFFFFF;" d="M294.397,277.523h-73.333c-1.788,0-3.25,1.463-3.25,3.25h79.833
				C297.647,278.986,296.185,277.523,294.397,277.523z"/>
			<path style="opacity:0.8;fill:#407BFF;" d="M294.397,277.523h-16.333c-1.788,0-3.25,1.463-3.25,3.25h22.833
				C297.647,278.986,296.185,277.523,294.397,277.523z"/>
		</g>
		<g>
			<path style="fill:#407BFF;" d="M332.81,264.517h-10.708c-0.657,0-1.19,0.533-1.19,1.19v13.939c0,0.657,0.533,1.19,1.19,1.19
				h10.708c0.657,0,1.19-0.533,1.19-1.19v-13.939C334,265.05,333.468,264.517,332.81,264.517z"/>
			<g>
				<path style="fill:#FFFFFF;" d="M322.633,272.466l0.189-0.937l-0.899-0.001l0.001-1.018l1.103,0.001l0.267-1.32l1.049,0.001
					l-0.268,1.32l0.809,0.001l0.267-1.32l1.046,0.001l-0.265,1.32l0.511,0.001l-0.001,1.018l-0.714-0.001l-0.189,0.937l0.902,0.001
					l-0.001,1.018l-1.105-0.001l-0.261,1.298l-1.049-0.001l0.262-1.298l-0.813-0.001l-0.264,1.298l-1.042-0.001l0.262-1.298
					l-0.507-0.001l0.001-1.018L322.633,272.466z M323.678,272.467l0.812,0.001l0.189-0.936l-0.811-0.001L323.678,272.467z"/>
				<path style="fill:#FFFFFF;" d="M330.404,269.201l-0.007,5.499l-1.52-0.002l0.005-3.603c-0.246,0.187-0.484,0.337-0.714,0.453
					c-0.23,0.115-0.519,0.225-0.865,0.331l0.002-1.232c0.512-0.164,0.909-0.361,1.192-0.592c0.283-0.231,0.505-0.516,0.665-0.855
					L330.404,269.201z"/>
			</g>
			<path style="fill:#407BFF;" d="M335.228,279.054c-2.59,0-4.618-2.802-4.618-6.378c0-3.516,2.072-6.377,4.618-6.377
				s4.618,2.861,4.618,6.377C339.846,276.252,337.817,279.054,335.228,279.054z M335.228,267.768c-1.707,0-3.149,2.247-3.149,4.908
				c0,2.661,1.442,4.909,3.149,4.909c1.707,0,3.15-2.248,3.15-4.909C338.377,270.015,336.935,267.768,335.228,267.768z"/>
		</g>
	</g>
</g>
<g id="Character_1">
	<g>
		<g>
			<g>
				<g>
					<path style="fill:#407BFF;" d="M181.551,234.106l-0.93,1.444l-0.978,1.577c-0.649,1.063-1.282,2.145-1.912,3.23
						c-1.243,2.181-2.438,4.392-3.552,6.633c-2.222,4.481-4.167,9.068-5.592,13.709c-0.355,1.162-0.677,2.322-0.976,3.484
						l-0.409,1.745l-0.173,0.872l-0.087,0.436c-0.029,0.144-0.063,0.331-0.065,0.29c-0.049,0.065-0.076-0.029-0.177-0.256
						c-0.1-0.221-0.326-0.493-0.48-0.584c-0.172-0.099-0.204-0.034-0.107,0.09c0.109,0.123,0.357,0.295,0.682,0.476
						c0.66,0.364,1.643,0.667,2.697,0.919c1.062,0.268,2.226,0.441,3.425,0.604c2.38,0.311,5.014,0.461,7.461,0.59l0.251,0.013
						c1.935,0.102,3.421,1.754,3.318,3.689c-0.077,1.456-1.034,2.657-2.326,3.12c-1.46,0.521-2.78,0.927-4.206,1.272
						c-1.407,0.355-2.841,0.626-4.318,0.838c-2.976,0.37-6.027,0.621-9.781-0.252c-0.948-0.232-1.946-0.569-3.003-1.107
						c-1.055-0.551-2.187-1.289-3.222-2.416c-1.036-1.101-1.897-2.589-2.339-4.105c-0.448-1.522-0.509-2.979-0.419-4.242
						c0.025-0.375,0.047-0.518,0.067-0.705l0.064-0.557l0.131-1.114c0.111-0.734,0.208-1.474,0.333-2.204
						c0.249-1.459,0.529-2.91,0.881-4.332c1.355-5.71,3.348-11.135,5.737-16.321c1.208-2.587,2.497-5.125,3.912-7.595
						c0.7-1.24,1.435-2.46,2.2-3.673c0.38-0.607,0.771-1.212,1.178-1.813c0.42-0.622,0.79-1.161,1.314-1.888
						c2.261-3.134,6.634-3.842,9.768-1.582c3.029,2.184,3.792,6.341,1.8,9.447L181.551,234.106z"/>
					<path style="fill:#263238;" d="M208.288,193.754c0.101,0.674,0.54,1.168,0.981,1.102c0.441-0.066,0.717-0.666,0.616-1.34
						c-0.101-0.674-0.54-1.168-0.981-1.102C208.463,192.48,208.188,193.08,208.288,193.754z"/>
					<path style="fill:#A02724;" d="M208.766,194.931c0,0,2.115,3.662,4.084,5.287c-1.027,1.292-3.132,1.086-3.132,1.086
						L208.766,194.931z"/>
					<path style="fill:#263238;" d="M205.34,190.374c0.08-0.012,0.158-0.048,0.22-0.109c1.266-1.233,2.68-0.95,2.739-0.937
						c0.216,0.046,0.429-0.091,0.476-0.306c0.047-0.216-0.088-0.428-0.303-0.476c-0.076-0.017-1.885-0.401-3.471,1.146
						c-0.159,0.154-0.162,0.408-0.007,0.566C205.087,190.353,205.217,190.393,205.34,190.374z"/>
					<path style="fill:#B55B52;" d="M188.483,201.199c0.286,6.296-0.19,17.683-5.08,21.126c0,0,0.746,6.455,12.113,8.152
						c12.499,1.866,6.899-5.313,6.899-5.313c-6.578-2.647-5.647-7.682-3.749-12.258L188.483,201.199z"/>
					<path style="fill:#E0E0E0;" d="M181.436,224.85c-0.481-2.846-0.993-6.096,1.151-6.598c2.36-0.553,14.579,1.077,18.441,3.968
						c3.863,2.891,1.877,8.002,1.877,8.002L181.436,224.85z"/>
					<path style="fill:#407BFF;" d="M214.39,235.469c0.464,10.084-0.011,30.074-6.84,60.326h-45.22
						c-0.282-6.287,6.213-33.408,5.646-63.208c-0.119-6.274,4.964-11.48,11.239-11.467c0.89,0.002,1.824,0.036,2.797,0.109
						c5.768,0.437,14.085,1.368,19.062,2.484c1.876,0.421,3.708,0.928,5.369,1.439C211.007,226.557,214.17,230.698,214.39,235.469z"
						/>
					<path style="opacity:0.2;" d="M207.56,253.61c-0.72,5.12-2.38,14.01,3.61,23.82c0.68-4.07,1.23-7.88,1.68-11.44L207.56,253.61z
						"/>
					<path style="fill:#B55B52;" d="M242.799,265.947l7.607-2.619l-3.098-8.028c0,0-5.525,0.499-7.683,6.265L242.799,265.947z"/>
					<polygon style="fill:#B55B52;" points="254.443,261.096 255.248,254.641 247.308,255.301 250.406,263.328 					"/>
					<path style="fill:#407BFF;" d="M214.337,234.537c0.42,1.478,0.945,3.181,1.442,4.779c0.517,1.619,1.028,3.244,1.582,4.851
						c1.084,3.222,2.268,6.397,3.523,9.498c1.274,3.09,2.643,6.108,4.16,8.92c1.523,2.801,3.211,5.418,5.017,7.428l-7.331-1.138
						c1.406-0.606,2.864-1.234,4.322-1.951c1.451-0.731,2.948-1.445,4.421-2.241l4.492-2.377c1.502-0.791,3.043-1.644,4.538-2.383
						l0.16-0.079c1.754-0.867,3.879-0.148,4.746,1.605c0.611,1.235,0.432,2.656-0.337,3.69c-1.153,1.544-2.331,2.891-3.585,4.252
						c-1.25,1.345-2.563,2.63-3.922,3.885c-1.374,1.233-2.792,2.451-4.297,3.588c-1.506,1.139-3.086,2.245-4.778,3.26
						c-2.274,1.364-5.11,0.978-6.942-0.765l-0.389-0.372c-3.202-3.05-5.598-6.329-7.652-9.663
						c-2.072-3.329-3.802-6.725-5.354-10.158c-1.567-3.426-2.912-6.902-4.146-10.402c-0.605-1.755-1.197-3.51-1.726-5.289
						c-0.548-1.8-1.026-3.509-1.509-5.47c-0.926-3.753,1.367-7.547,5.12-8.472c3.67-0.905,7.378,1.266,8.406,4.872L214.337,234.537z
						"/>
					<path style="fill:#B55B52;" d="M185.58,195.685c1.746,8.207,2.351,13.099,7.17,16.726c7.248,5.455,16.906,0.134,17.647-8.429
						c0.667-7.708-2.3-19.834-10.901-21.919C191.023,180.008,183.834,187.478,185.58,195.685z"/>
					<path style="fill:#263238;" d="M203.25,196.547c3.917-0.297,3.694-2.103,2.806-3.436c-0.889-1.333-1.945-6.111-1.945-6.111
						s5.445,1.444,4.333-3.778c-1.111-5.222-8.486-11.833-14.91-7.778c-12.812-2.111-16.979,3.056-15.035,7.833
						c-10.167,4.5-2.833,13.611,1.222,13.611c-3.611,3.222,1.778,7.861,10.516,13.072
						C196.667,202.25,206.111,204.316,203.25,196.547z"/>
					<path style="fill:#263238;" d="M195.333,178.056c-0.26,0-0.519-0.101-0.716-0.302c-2.969-3.045-7.215-4.2-11.649-3.169
						c-0.537,0.132-1.075-0.208-1.2-0.747c-0.125-0.538,0.209-1.075,0.747-1.2c5.061-1.179,10.116,0.215,13.534,3.72
						c0.386,0.395,0.378,1.028-0.018,1.414C195.837,177.961,195.585,178.056,195.333,178.056z"/>
					<path style="fill:#263238;" d="M182.083,206c-0.257,0-0.514-0.099-0.709-0.295c-2.819-2.833-3.979-5.057-3.645-6.997
						c0.232-1.352,1.186-2.439,2.838-3.233c0.498-0.241,1.096-0.029,1.335,0.468c0.239,0.498,0.029,1.096-0.468,1.335
						c-1.049,0.504-1.616,1.083-1.734,1.769c-0.143,0.834,0.278,2.421,3.093,5.249c0.39,0.392,0.388,1.024-0.004,1.414
						C182.594,205.903,182.338,206,182.083,206z"/>
					<path style="fill:#B55B52;" d="M198.434,195.91c0.674,2.092,2.175,3.837,3.698,4.839c2.291,1.507,3.838-0.197,3.538-2.673
						c-0.27-2.229-1.788-5.699-4.249-6.222C198.996,191.339,197.664,193.518,198.434,195.91z"/>
					<g>
						<path style="fill:#407BFF;" d="M276.618,407.355c1.085,0,2.132-0.15,2.483-0.637c0.123-0.171,0.22-0.461-0.016-0.875
							c-0.133-0.232-0.346-0.389-0.635-0.468c-1.407-0.383-4.361,1.301-4.486,1.373c-0.072,0.042-0.111,0.124-0.098,0.206
							c0.013,0.082,0.076,0.147,0.158,0.163C274.563,407.224,275.607,407.355,276.618,407.355z M277.958,405.715
							c0.141,0,0.271,0.015,0.387,0.046c0.185,0.05,0.313,0.142,0.392,0.28c0.142,0.248,0.09,0.372,0.039,0.443
							c-0.394,0.546-2.531,0.558-4.103,0.337C275.457,406.418,276.97,405.715,277.958,405.715z"/>
						<path style="fill:#407BFF;" d="M274.063,407.12c0.028,0,0.056-0.006,0.082-0.017c1.02-0.458,3.042-2.286,2.887-3.242
							c-0.037-0.224-0.195-0.504-0.746-0.56c-0.408-0.038-0.783,0.075-1.111,0.344c-1.075,0.883-1.303,3.16-1.312,3.256
							c-0.007,0.071,0.025,0.14,0.083,0.182C273.981,407.108,274.022,407.12,274.063,407.12z M276.125,403.693
							c0.039,0,0.079,0.002,0.12,0.007c0.36,0.036,0.383,0.178,0.391,0.225c0.093,0.574-1.281,2.01-2.322,2.636
							c0.109-0.665,0.41-2.027,1.116-2.607C275.643,403.779,275.871,403.693,276.125,403.693z"/>
						<polygon style="fill:#B55B52;" points="264.453,406.921 272.907,406.921 271.295,387.342 262.841,387.342 						"/>
						<path style="fill:#263238;" d="M272.92,405.942h-9.233c-0.346,0-0.609,0.24-0.634,0.577l-0.556,7.515
							c-0.058,0.779,0.643,1.517,1.439,1.504c3.322-0.057,8.106-0.252,12.292-0.252c4.895,0,5.403,0.267,11.143,0.267
							c3.471,0,3.914-3.509,2.414-3.827c-6.828-1.447-8.493-1.602-14.73-5.126C274.376,406.217,273.65,405.942,272.92,405.942z"/>
						<polygon style="opacity:0.2;" points="271.294,387.347 272.127,397.439 263.669,397.439 262.836,387.347 						"/>
					</g>
					<path style="fill:#407BFF;" d="M223.975,407.354c0.867,0,1.706-0.133,2.032-0.559c0.137-0.179,0.247-0.489-0.007-0.95
						c-0.133-0.242-0.345-0.399-0.629-0.466c-1.231-0.29-3.569,1.309-3.668,1.377c-0.065,0.045-0.098,0.124-0.083,0.201
						c0.015,0.077,0.073,0.139,0.15,0.158C222.203,407.219,223.103,407.354,223.975,407.354z M225.032,405.742
						c0.088,0,0.171,0.008,0.246,0.026c0.171,0.04,0.292,0.129,0.37,0.27c0.181,0.329,0.075,0.468,0.04,0.514
						c-0.362,0.473-2.087,0.482-3.351,0.269C223.065,406.373,224.264,405.742,225.032,405.742z"/>
					<path style="fill:#407BFF;" d="M221.816,407.12c0.033,0,0.066-0.008,0.096-0.024c0.875-0.475,2.566-2.327,2.387-3.27
						c-0.032-0.17-0.158-0.466-0.637-0.525c-0.31-0.037-0.597,0.048-0.853,0.257c-0.982,0.802-1.185,3.242-1.192,3.346
						c-0.006,0.073,0.029,0.144,0.09,0.184C221.741,407.11,221.779,407.12,221.816,407.12z M223.523,403.694
						c0.03,0,0.06,0.002,0.09,0.006c0.26,0.032,0.283,0.151,0.293,0.202c0.106,0.557-0.972,1.957-1.841,2.617
						c0.099-0.712,0.369-2.135,0.998-2.649C223.207,403.752,223.358,403.694,223.523,403.694z"/>
					<polygon style="fill:#B55B52;" points="214.078,406.921 222.533,406.921 226.782,387.342 218.328,387.342 					"/>
					<path style="fill:#263238;" d="M223.133,405.942h-9.498c-0.346,0-0.645,0.24-0.72,0.577l-1.67,7.515
						c-0.173,0.779,0.439,1.517,1.238,1.504c3.316-0.057,4.927-0.252,9.104-0.252c2.57,0,5.868,0.267,9.416,0.267
						c3.471,0,4.012-3.509,2.559-3.827c-6.514-1.425-6.972-3.39-9.057-5.265C224.13,406.123,223.639,405.942,223.133,405.942z"/>
					<path d="M193.997,295.796c0,0,46.907,14.234,48.064,33.075c2.132,34.698-14.888,64.274-14.888,64.274h-12.682
						c0,0,4.816-14.663,6.544-46.098c2.171-39.499-72.512,0.925-58.706-51.251H193.997z"/>
					<g style="opacity:0.2;">
						<polygon points="218.325,387.347 226.783,387.347 224.588,397.439 216.13,397.439 						"/>
					</g>
					<path style="fill:#263238;" d="M207.55,295.796c0,0,60.649,3.962,63.049,36.191c2.756,37.013,3.555,61.158,3.555,61.158
						h-12.562c0,0-6.464-22.694-12.037-55.311c-1.669-9.772-22.397-11.455-41.958-12.611c-16.897-0.999-29.875-1.972-31.292-20.722
						l0.218-8.704H207.55z"/>
					<path style="fill:#407BFF;" d="M277.221,389.78c0.066,0-0.808,5.946-0.808,5.946h-17.422l-0.471-5.307L277.221,389.78z"/>
					<path style="fill:#407BFF;" d="M231.001,389.78c0.066,0-1.599,5.946-1.599,5.946h-17.422l0.32-5.307L231.001,389.78z"/>
				</g>
			</g>
		</g>
		<g>
			<g>
				<path style="fill:#407BFF;" d="M204.824,322.556l-8.489-57.666c-0.475-3.227-3.244-5.618-6.506-5.618h-50.085
					c-4.013,0-7.091,3.563-6.506,7.534l8.207,55.751l0,0c0,2.7,2.189,4.889,4.889,4.889h91.305l0,0c0-2.7-2.189-4.889-4.889-4.889
					H204.824z"/>
				<path style="opacity:0.5;fill:#FFFFFF;" d="M204.824,322.556l-8.489-57.666c-0.475-3.227-3.244-5.618-6.506-5.618h-50.085
					c-4.013,0-7.091,3.563-6.506,7.534l8.207,55.751l0,0c0,2.7,2.189,4.889,4.889,4.889h91.305l0,0c0-2.7-2.189-4.889-4.889-4.889
					H204.824z"/>
			</g>
			<path style="opacity:0.3;fill:#407BFF;" d="M189.829,259.271h-50.085c-4.013,0-7.091,3.563-6.506,7.534l8.207,55.751
				c0,2.7,2.189,4.889,4.889,4.889h53.111L189.829,259.271z"/>
			<g>
				<polygon style="fill:#407BFF;" points="142.08,416.238 139.247,416.238 146.333,327.444 149.167,327.444 				"/>
				<polygon style="opacity:0.6;fill:#FFFFFF;" points="142.08,416.238 139.247,416.238 146.333,327.444 149.167,327.444 				"/>
			</g>
			<g>
				<polygon style="fill:#407BFF;" points="190.232,416.238 187.398,416.238 194.485,327.444 197.318,327.444 				"/>
				<polygon style="opacity:0.6;fill:#FFFFFF;" points="190.232,416.238 187.398,416.238 194.485,327.444 197.318,327.444 				"/>
			</g>
			<g>
				<polygon style="fill:#407BFF;" points="194.587,416.238 191.753,416.238 184.667,327.444 187.5,327.444 				"/>
				<polygon style="opacity:0.7;fill:#FFFFFF;" points="194.587,416.238 191.753,416.238 184.667,327.444 187.5,327.444 				"/>
			</g>
			<g>
				<polygon style="fill:#407BFF;" points="242.738,416.238 239.905,416.238 232.818,327.444 235.652,327.444 				"/>
				<polygon style="opacity:0.7;fill:#FFFFFF;" points="242.738,416.238 239.905,416.238 232.818,327.444 235.652,327.444 				"/>
			</g>
		</g>
	</g>
</g>
</svg>
