<svg width="49" height="49" viewBox="0 0 49 49" fill="none" xmlns="http://www.w3.org/2000/svg">
<g clip-path="url(#clip0_52_11)">
<path d="M42.0215 42.4426H26.0215V12.4426C26.0215 10.8513 26.6536 9.3252 27.7788 8.19999C28.9041 7.07477 30.4302 6.44263 32.0215 6.44263H42.0215C42.5519 6.44263 43.0606 6.65334 43.4357 7.02841C43.8108 7.40349 44.0215 7.91219 44.0215 8.44263V40.4426C44.0215 40.9731 43.8108 41.4818 43.4357 41.8568C43.0606 42.2319 42.5519 42.4426 42.0215 42.4426ZM22.0215 42.4426H6.02148C5.49105 42.4426 4.98234 42.2319 4.60727 41.8568C4.2322 41.4818 4.02148 40.9731 4.02148 40.4426V8.44263C4.02148 7.91219 4.2322 7.40349 4.60727 7.02841C4.98234 6.65334 5.49105 6.44263 6.02148 6.44263H16.0215C17.6128 6.44263 19.1389 7.07477 20.2641 8.19999C21.3893 9.3252 22.0215 10.8513 22.0215 12.4426V42.4426ZM22.0215 42.4426H26.0215V46.4426H22.0215V42.4426Z" fill="#111827"/>
</g>
<defs>
<clipPath id="clip0_52_11">
<rect width="48" height="48" fill="#111827" transform="translate(0.0214844 0.442627)"/>
</clipPath>
</defs>
</svg>
