<svg width="49" height="49" viewBox="0 0 49 49" fill="none" xmlns="http://www.w3.org/2000/svg">
<path d="M10.3545 36.0971V28.5657L18.4748 33.8709C22.0471 36.2049 26.6619 36.2049 30.2341 33.8709L38.3545 28.5657V36.0971C38.3545 36.4217 38.2493 36.7375 38.0545 36.9971L38.0523 36.9999L38.0499 37.0033L38.0437 37.0113L38.0273 37.0327L38.0031 37.0633L37.9767 37.0963C37.9353 37.1475 37.8783 37.2161 37.8051 37.2997C37.6589 37.4667 37.4483 37.6939 37.1707 37.9605C36.6155 38.4933 35.7897 39.1867 34.6719 39.8745C32.4263 41.2565 29.0319 42.5971 24.3545 42.5971C19.677 42.5971 16.2827 41.2565 14.0371 39.8745C12.9193 39.1867 12.0935 38.4933 11.5384 37.9605C11.2607 37.6939 11.0501 37.4667 10.9039 37.2997C10.8307 37.2161 10.7736 37.1475 10.7322 37.0963C10.7115 37.0705 10.6947 37.0493 10.6818 37.0327L10.6652 37.0113L10.6592 37.0033L10.6566 36.9999C10.4619 36.7403 10.3545 36.4217 10.3545 36.0971Z" fill="#624BD8"/>
<path d="M44.6749 20.853L28.5933 31.3596C26.0179 33.0422 22.6911 33.0422 20.1157 31.3596L6.35449 22.369V33.0972C6.35449 33.9256 5.68291 34.5972 4.85449 34.5972C4.02607 34.5972 3.35449 33.9256 3.35449 33.0972V20.5972C3.35449 20.4216 3.38465 20.2532 3.44005 20.0966C3.38345 19.9364 3.35375 19.7655 3.35451 19.5907C3.35671 19.0819 3.61665 18.609 4.04499 18.3344L20.1721 7.99645C22.7209 6.36251 25.9881 6.36251 28.5369 7.99645L44.6641 18.3344C45.0923 18.609 45.3523 19.0819 45.3545 19.5907C45.3565 20.0359 45.1607 20.4554 44.8265 20.7398C44.7787 20.7804 44.7281 20.8182 44.6749 20.853Z" fill="#624BD8"/>
</svg>
