<svg width="49" height="49" viewBox="0 0 49 49" fill="none" xmlns="http://www.w3.org/2000/svg">
<path d="M24.9531 44.3389C13.9125 44.3267 4.96525 35.3795 4.95312 24.3389V23.9389C5.17299 12.948 14.2223 4.1948 25.2145 4.34066C36.2067 4.4865 45.0205 13.4767 44.9487 24.4695C44.8769 35.4625 35.9463 44.3367 24.9531 44.3389ZM24.9211 40.3389H24.9531C33.7865 40.3301 40.9415 33.1643 40.9371 24.3309C40.9327 15.4975 33.7705 8.3389 24.9371 8.3389C16.1037 8.3389 8.94155 15.4975 8.93713 24.3309C8.93271 33.1643 16.0877 40.3301 24.9211 40.3389ZM26.9531 36.3389H22.9531V32.3389H26.9531V36.3389ZM26.9531 30.3389H22.9531C22.8899 27.7343 24.2453 25.3005 26.4931 23.9829C27.8131 22.9709 28.9531 22.0989 28.9531 20.3389C28.9531 18.1298 27.1623 16.3389 24.9531 16.3389C22.7439 16.3389 20.9531 18.1298 20.9531 20.3389H16.9531V20.1589C16.9853 17.3008 18.5398 14.6769 21.0311 13.2757C23.5223 11.8745 26.5719 11.9088 29.0311 13.3657C31.4901 14.8226 32.9853 17.4808 32.9531 20.3389C32.8099 22.4969 31.6525 24.4593 29.8331 25.6289C28.1885 26.6613 27.1225 28.4045 26.9531 30.3389Z" fill="#111827"/>
</svg>
