<svg width="49" height="49" viewBox="0 0 49 49" fill="none" xmlns="http://www.w3.org/2000/svg">
<path d="M14.1049 23.1874C13.4401 21.829 13.0887 20.3036 13.0887 18.7753C13.0887 17.9386 13.2097 17.079 13.4574 16.1506C13.5683 15.733 13.7075 15.3337 13.8639 14.9463C13.2635 14.6185 12.6035 14.4169 11.8955 14.4169C9.26986 14.4169 7.14441 16.8903 7.14441 19.945C7.14441 22.082 8.18889 23.9314 9.71433 24.8516L3.27513 27.8487C2.87385 28.0373 2.60938 28.4905 2.60938 28.9969V34.0791C2.60938 34.7602 3.08506 35.3122 3.67017 35.3122H7.47609V29.9794C7.47609 28.4257 8.34106 27.0169 9.68362 26.3885L14.6094 24.0946C14.427 23.8047 14.2585 23.5018 14.1049 23.1874Z" fill="#111827"/>
<path d="M29.5533 17.569H45.9174C45.9184 17.569 45.9193 17.569 45.9203 17.569C46.3873 17.569 46.7656 17.1903 46.7656 16.7238V13.6369C46.7656 13.1698 46.3869 12.7916 45.9203 12.7916C45.9193 12.7916 45.9184 12.7921 45.9174 12.7921V12.7897H27.6313C28.4061 13.8044 28.9965 15.0106 29.3238 16.3585C29.427 16.7852 29.5019 17.1841 29.5533 17.569Z" fill="#111827"/>
<path d="M46.7653 32.7538C46.7653 32.2868 46.3866 31.9085 45.92 31.9085C45.9191 31.9085 45.9181 31.909 45.9172 31.909V31.9066H35.2506V35.3122V36.2693C35.2506 36.41 35.2429 36.5487 35.229 36.6855H45.9172C45.9181 36.6855 45.9191 36.6855 45.92 36.6855C46.3871 36.6855 46.7653 36.3068 46.7653 35.8402V32.7538Z" fill="#111827"/>
<path d="M45.9204 22.3503C45.9194 22.3503 45.9185 22.3508 45.9175 22.3508V22.3484H28.9807C28.9044 22.5495 28.8238 22.7497 28.734 22.9479C28.5593 23.3329 28.363 23.701 28.1465 24.0505L33.0847 26.4063C33.4596 26.5877 33.7918 26.8369 34.0822 27.1277H45.9175C45.9185 27.1277 45.9194 27.1277 45.9204 27.1277C46.3874 27.1277 46.7657 26.749 46.7657 26.2825V23.1956C46.7657 22.7285 46.387 22.3503 45.9204 22.3503Z" fill="#111827"/>
<path d="M32.0423 28.5615L26.4978 25.9167L24.153 24.7983C25.1773 24.1532 26.0087 23.1577 26.553 21.9581C26.9845 21.0058 27.2418 19.9273 27.2418 18.7753C27.2418 18.1282 27.1395 17.5143 26.996 16.921C26.2986 14.0492 24.0555 11.9329 21.3628 11.9329C18.7208 11.9329 16.5119 13.9733 15.7717 16.7641C15.6008 17.4039 15.4827 18.0697 15.4827 18.7748C15.4827 19.9997 15.7688 21.1412 16.2551 22.1348C16.8171 23.2868 17.6499 24.2367 18.6637 24.8473L16.4183 25.8927L10.6938 28.5586C10.196 28.7914 9.86963 29.3525 9.86963 29.9789V35.3122V36.2693C9.86963 37.1122 10.4571 37.7962 11.1824 37.7962H31.5426C32.2679 37.7962 32.8554 37.1127 32.8554 36.2693V35.3122V29.9794C32.8563 29.3549 32.5347 28.7996 32.0423 28.5615Z" fill="#111827"/>
</svg>
