<svg width="49" height="49" viewBox="0 0 49 49" fill="none" xmlns="http://www.w3.org/2000/svg">
<path fill-rule="evenodd" clip-rule="evenodd" d="M24.1452 30.7398L35.9818 42.8587C37.1692 44.0838 37.9418 44.0964 39.1509 42.8587L41.5258 40.4267C42.6892 39.2358 42.7681 38.4541 41.5258 37.1821L28.9943 24.3535L41.5269 11.525C42.7006 10.3192 42.7235 9.50553 41.5269 8.27924L39.1521 5.84839C37.9201 4.58667 37.1589 4.64496 35.9829 5.84839L24.1452 17.9672L12.3086 5.84953C11.1326 4.6461 10.3715 4.58781 9.13949 5.84953L6.76463 8.28039C5.56692 9.50667 5.58863 10.3204 6.76463 11.5261L19.2961 24.3535L6.76463 37.1821C5.52235 38.4541 5.58863 39.2358 6.76463 40.4267L9.13835 42.8587C10.3372 44.0964 11.1098 44.0838 12.3075 42.8587L24.1452 30.7398Z" fill="#FF1818"/>
</svg>
