<svg width="49" height="49" viewBox="0 0 49 49" fill="none" xmlns="http://www.w3.org/2000/svg">
<path d="M24.1005 4.13429C13.1005 4.13429 4.10046 13.1343 4.10046 24.1343C4.10046 35.1343 13.1005 44.1343 24.1005 44.1343C35.1005 44.1343 44.1005 35.1343 44.1005 24.1343C44.1005 13.1343 35.1005 4.13429 24.1005 4.13429ZM32.5005 20.7343L22.9005 30.3343C22.1005 31.1343 20.9005 31.1343 20.1005 30.3343L15.7005 25.9343C14.9005 25.1343 14.9005 23.9343 15.7005 23.1343C16.5005 22.3343 17.7005 22.3343 18.5005 23.1343L21.5005 26.1343L29.7005 17.9343C30.5005 17.1343 31.7005 17.1343 32.5005 17.9343C33.3005 18.7343 33.3005 19.9343 32.5005 20.7343Z" fill="black"/>
</svg>
