<svg width="49" height="49" viewBox="0 0 49 49" fill="none" xmlns="http://www.w3.org/2000/svg">
<g clip-path="url(#clip0_1408_2303)">
<path d="M0.8125 7.27905H48.8125V36.0791H47.0125C47.0125 31.7831 43.5085 28.2791 39.2125 28.2791C36.0685 28.2791 33.4045 30.1751 32.1565 32.8631C31.5565 32.6231 30.9085 32.4791 30.2125 32.4791C27.8605 32.4791 25.8925 33.9911 25.1485 36.0791H0.8125V7.27905ZM20.9005 14.7431C20.7565 15.1031 20.6605 15.4871 20.6365 15.8711C20.6125 16.2551 20.6125 16.6631 20.6605 17.0711L20.7085 17.2631C20.7325 17.4071 20.7565 17.5991 20.8285 17.8151C20.8765 18.0551 20.9725 18.2951 21.0685 18.5591C21.1405 18.8231 21.2845 19.0871 21.4285 19.3511C21.5965 19.6391 21.7885 19.8791 21.9805 20.0951C22.1725 20.3111 22.4125 20.5031 22.7245 20.6471C23.0125 20.7911 23.3245 20.8631 23.6845 20.8631C24.0205 20.8631 24.3325 20.7911 24.6205 20.6471C24.9085 20.5031 25.1485 20.3111 25.3405 20.1191C25.5565 19.9031 25.7245 19.6391 25.8685 19.3511C26.0365 19.0631 26.1565 18.7991 26.2525 18.5591C26.3485 18.3191 26.4205 18.0791 26.4685 17.8151C26.5405 17.5511 26.5645 17.3831 26.5885 17.2871C26.6125 17.1911 26.6125 17.1191 26.6125 17.0711C26.7325 16.3751 26.6845 15.7271 26.5165 15.1031C26.3485 14.4791 26.0125 13.9511 25.5325 13.5191C25.0285 13.0871 24.4045 12.8711 23.6365 12.8711C23.1805 12.8711 22.7725 12.9431 22.3885 13.1111C22.0285 13.2791 21.7165 13.4951 21.4765 13.7831C21.2605 14.0471 21.0685 14.3831 20.9005 14.7431ZM31.6525 29.2391V26.5031C31.6525 25.7111 31.4125 24.9191 30.9565 24.1511C30.5005 23.3831 29.8765 22.7351 29.1085 22.2551C28.3405 21.7511 27.5245 21.5111 26.6605 21.5111L23.6845 23.5271L20.6125 21.5591C19.7245 21.5591 18.8845 21.7991 18.1165 22.2791C17.3725 22.7591 16.7725 23.3831 16.3405 24.1271C15.9085 24.8951 15.6925 25.6871 15.6925 26.5031V29.2391L16.1245 29.3591C16.4125 29.4551 16.8205 29.5511 17.3485 29.6951C17.9005 29.8151 18.4765 29.9351 19.1245 30.0551C19.7485 30.1751 20.4925 30.2711 21.3085 30.3671C22.1245 30.4391 22.9165 30.4871 23.6845 30.4871C24.4045 30.4871 25.1965 30.4391 26.0365 30.3671C26.8525 30.2711 27.5725 30.1751 28.1725 30.0551C28.7725 29.9591 29.3725 29.8151 29.9965 29.6711L31.1965 29.3831C31.3885 29.3351 31.5325 29.2871 31.6525 29.2391ZM39.2125 29.4791C42.8605 29.4791 45.8125 32.4311 45.8125 36.0791C45.8125 39.7271 42.8605 42.6791 39.2125 42.6791C37.4605 42.6791 35.9005 41.9591 34.7245 40.8311C35.2765 39.9911 35.6125 38.9591 35.6125 37.8791C35.6125 36.0311 34.6765 34.3751 33.2365 33.4151C34.2685 31.1111 36.5245 29.4791 39.2125 29.4791ZM26.0125 37.8791C26.0125 35.5751 27.9085 33.6791 30.2125 33.6791C32.5165 33.6791 34.4125 35.5751 34.4125 37.8791C34.4125 40.1831 32.5165 42.0791 30.2125 42.0791C27.9085 42.0791 26.0125 40.1831 26.0125 37.8791Z" fill="#fff"/>
</g>
<defs>
<clipPath id="clip0_1408_2303">
<rect width="48" height="48" fill="white" transform="translate(0.8125 0.0791016)"/>
</clipPath>
</defs>
</svg>
