<svg width="49" height="49" viewBox="0 0 49 49" fill="none" xmlns="http://www.w3.org/2000/svg">
<path d="M42.4795 16.6174C42.0755 16.6174 32.7795 16.6754 24.4795 20.6334C16.1795 16.6754 6.88349 16.6174 6.47949 16.6174C5.94906 16.6174 5.44035 16.8281 5.06528 17.2032C4.69021 17.5783 4.47949 18.087 4.47949 18.6174V38.3834C4.47949 38.6518 4.5335 38.9174 4.6383 39.1644C4.7431 39.4115 4.89654 39.6349 5.08949 39.8214C5.47949 40.1974 6.04949 40.4314 6.54749 40.3814L6.80149 40.3794C8.16749 40.3794 15.3935 40.5754 23.6335 44.4294C23.6655 44.4454 23.7015 44.4394 23.7335 44.4514C23.9715 44.5494 24.2215 44.6174 24.4795 44.6174C24.7375 44.6174 24.9875 44.5494 25.2275 44.4514C25.2595 44.4394 25.2955 44.4454 25.3275 44.4294C33.5675 40.5734 40.7935 40.3794 42.1595 40.3794L42.4135 40.3814C42.8895 40.4314 43.4795 40.1974 43.8715 39.8214C44.2595 39.4434 44.4795 38.9234 44.4795 38.3834V18.6174C44.4795 18.087 44.2688 17.5783 43.8937 17.2032C43.5186 16.8281 43.0099 16.6174 42.4795 16.6174ZM8.47949 20.7154C11.4495 20.9374 17.2415 21.6754 22.4795 24.0994V39.5834C16.4795 37.2334 11.2995 36.5954 8.47949 36.4314V20.7154ZM40.4795 36.4314C37.6595 36.5954 32.4795 37.2334 26.4795 39.5834V24.0994C31.7175 21.6754 37.5095 20.9374 40.4795 20.7154V36.4314Z" fill="#fff"/>
<path d="M24.4795 16.6174C27.7932 16.6174 30.4795 13.9311 30.4795 10.6174C30.4795 7.30372 27.7932 4.61743 24.4795 4.61743C21.1658 4.61743 18.4795 7.30372 18.4795 10.6174C18.4795 13.9311 21.1658 16.6174 24.4795 16.6174Z" fill="#fff"/>
</svg>
