<svg width="49" height="49" viewBox="0 0 49 49" fill="none" xmlns="http://www.w3.org/2000/svg">
<g clip-path="url(#clip0_12_10)">
<path d="M40.6333 44.5811H36.6333V40.5811C36.6333 38.9898 36.0012 37.4636 34.8759 36.3384C33.7507 35.2132 32.2246 34.5811 30.6333 34.5811H18.6333C17.042 34.5811 15.5159 35.2132 14.3907 36.3384C13.2654 37.4636 12.6333 38.9898 12.6333 40.5811V44.5811H8.6333V40.5811C8.6333 37.9289 9.68687 35.3854 11.5622 33.51C13.4376 31.6346 15.9811 30.5811 18.6333 30.5811H30.6333C33.2855 30.5811 35.829 31.6346 37.7044 33.51C39.5797 35.3854 40.6333 37.9289 40.6333 40.5811V44.5811ZM24.6333 26.5811C23.0574 26.5811 21.497 26.2707 20.0411 25.6676C18.5852 25.0646 17.2623 24.1806 16.148 23.0663C15.0337 21.952 14.1498 20.6292 13.5467 19.1733C12.9437 17.7173 12.6333 16.1569 12.6333 14.5811C12.6333 13.0052 12.9437 11.4448 13.5467 9.98885C14.1498 8.53295 15.0337 7.21008 16.148 6.09577C17.2623 4.98147 18.5852 4.09756 20.0411 3.4945C21.497 2.89144 23.0574 2.58105 24.6333 2.58105C27.8159 2.58105 30.8681 3.84534 33.1186 6.09577C35.369 8.34621 36.6333 11.3985 36.6333 14.5811C36.6333 17.7637 35.369 20.8159 33.1186 23.0663C30.8681 25.3168 27.8159 26.5811 24.6333 26.5811ZM24.6333 22.5811C26.755 22.5811 28.7899 21.7382 30.2902 20.2379C31.7904 18.7376 32.6333 16.7028 32.6333 14.5811C32.6333 12.4593 31.7904 10.4245 30.2902 8.9242C28.7899 7.42391 26.755 6.58105 24.6333 6.58105C22.5116 6.58105 20.4767 7.42391 18.9764 8.9242C17.4762 10.4245 16.6333 12.4593 16.6333 14.5811C16.6333 16.7028 17.4762 18.7376 18.9764 20.2379C20.4767 21.7382 22.5116 22.5811 24.6333 22.5811Z" fill="#333333"/>
</g>
<defs>
<clipPath id="clip0_12_10">
<rect width="48" height="48" fill="white" transform="translate(0.633301 0.581055)"/>
</clipPath>
</defs>
</svg>
