<svg xmlns="http://www.w3.org/2000/svg" xmlns:xlink="http://www.w3.org/1999/xlink" viewBox="0 0 300 300"><defs><style>.cls-1{fill:#f1f1f1;}.cls-2{clip-path:url(#clip-path);}.cls-3{opacity:0.69;}.cls-4{fill:#a0a0a0;}</style><clipPath id="clip-path"><rect class="cls-1" x="1" width="299" height="300"/></clipPath></defs><rect class="cls-1" x="1" width="299" height="300"/><g class="cls-2"><g class="cls-3"><path class="cls-4" d="M227.48,232.35c-35.61-12.84-47-23.68-47-46.87a16.41,16.41,0,0,1,1-6.1c2.79-7.17,10.75-8,14.65-28.78,2-10.58,11.58-.17,13.42-24.32,0-9.62-5.25-12-5.25-12S207,100,208,89.07c1.3-13.66-8-48.94-57.4-48.94h-1.25C100,40.13,90.68,75.41,92,89.07c1,11,3.71,25.2,3.71,25.2s-5.25,2.39-5.25,12c1.84,24.15,11.44,13.74,13.43,24.32,3.89,20.82,11.85,21.61,14.64,28.78a16.41,16.41,0,0,1,1,6.1c0,23.19-11.38,34-47,46.87s-51.79,26-51.79,35v32.81l258.54.12V267.32c0-9-16.07-22.09-51.79-35Zm0,0"/></g></g></svg>