<svg width="49" height="49" viewBox="0 0 49 49" fill="none" xmlns="http://www.w3.org/2000/svg">
<g clip-path="url(#clip0_52_9)">
<path d="M12.0595 46.0734V33.1243L0.0107422 39.6454L12.0595 46.0734ZM24.9049 1.17091C24.407 0.891434 23.6104 0.891434 23.1125 1.17091L10.6654 7.87833L34.6634 20.8274V46.8187L47.1105 40.1112C47.6084 39.8318 48.0067 39.1796 48.0067 38.6207V13.6542L24.9049 1.17091ZM11.1633 14.8652L0.0107422 20.8274L17.3371 30.2364V48.9613L28.4897 42.9991C28.9876 42.7197 29.3859 42.0676 29.3859 41.5086V23.7153L12.9557 14.8652C12.4578 14.5858 11.6612 14.5858 11.1633 14.8652Z" fill="#111827"/>
</g>
<defs>
<clipPath id="clip0_52_9">
<rect width="48" height="48" fill="#111827" transform="translate(0.0107422 0.961304)"/>
</clipPath>
</defs>
</svg>
