<svg width="70" height="70" viewBox="0 0 70 70" fill="none" xmlns="http://www.w3.org/2000/svg">
<rect width="70" height="70" rx="10" fill="#FDE7E4"/>
<rect x="10" y="27.5154" width="28" height="30" rx="5" transform="rotate(-26.5502 10 27.5154)" fill="url(#paint0_linear_32_40)"/>
<rect x="27" y="25" width="28" height="30" rx="5" fill="url(#paint1_linear_32_40)"/>
<path d="M38.2 41.25H35.8C35.6409 41.25 35.4883 41.1842 35.3757 41.0669C35.2632 40.9497 35.2 40.7908 35.2 40.625V38.125C35.2 37.9592 35.2632 37.8003 35.3757 37.6831C35.4883 37.5658 35.6409 37.5 35.8 37.5H38.2C38.3591 37.5 38.5117 37.5658 38.6243 37.6831C38.7368 37.8003 38.8 37.9592 38.8 38.125V39.575C39.2166 39.0719 39.8125 38.75 40.48 38.75H45.6153L45.8646 38.4559C45.9459 38.3504 45.9932 38.221 46 38.0859C45.9915 37.9297 45.9281 37.7822 45.8219 37.6715L43.6 35.625V31.875C43.6 31.7092 43.5368 31.5503 43.4243 31.4331C43.3117 31.3158 43.1591 31.25 43 31.25H41.8C41.6409 31.25 41.4883 31.3158 41.3757 31.4331C41.2632 31.5503 41.2 31.7092 41.2 31.875V33.4102L37.8813 30.3484C37.675 30.1562 37.2794 30 37.0019 30C36.7244 30 36.3295 30.1562 36.1218 30.3484L28.1793 37.6727C28.0724 37.7825 28.0085 37.9298 28 38.0859C28.0065 38.2197 28.053 38.348 28.1331 38.4527L28.8378 39.2852C28.9441 39.397 29.0866 39.4635 29.2375 39.4719C29.3649 39.4652 29.4872 39.4178 29.5878 39.3359L30.4 38.5891V45C30.4 45.3315 30.5264 45.6495 30.7515 45.8839C30.9765 46.1183 31.2817 46.25 31.6 46.25H38.2V41.25ZM51.5999 47.5H50.2V41.25C50.2 40.5598 49.7166 40 49.12 40H40.48C39.8834 40 39.4 40.5598 39.4 41.25V47.5H38.0001C37.894 47.5 37.7922 47.5439 37.7172 47.6221C37.6422 47.7002 37.6 47.8063 37.6 47.9168V48.3332C37.6015 48.7743 37.7702 49.197 38.0694 49.5091C38.3686 49.8213 38.774 49.9977 39.1975 50H50.4025C50.826 49.9977 51.2314 49.8213 51.5306 49.5091C51.8298 49.197 51.9985 48.7743 52 48.3332V47.9168C52 47.8063 51.9578 47.7002 51.8828 47.6221C51.8078 47.5439 51.706 47.5 51.5999 47.5ZM48.4 47.5H41.2V41.875H48.4V47.5Z" fill="white"/>
<defs>
<linearGradient id="paint0_linear_32_40" x1="30.3226" y1="33.5154" x2="10.2321" y2="53.4763" gradientUnits="userSpaceOnUse">
<stop stop-color="#F1B6AC"/>
<stop offset="1" stop-color="#FA6750"/>
</linearGradient>
<linearGradient id="paint1_linear_32_40" x1="55" y1="25" x2="39.1335" y2="43.3896" gradientUnits="userSpaceOnUse">
<stop stop-color="#F1B6AC"/>
<stop offset="1" stop-color="#FA6750"/>
</linearGradient>
</defs>
</svg>
